{
    "asset" : {
        "generator" : "Khronos glTF Blender I/O v1.6.16",
        "version" : "2.0"
    },
    "scene" : 0,
    "scenes" : [
        {
            "name" : "Scene",
            "nodes" : [
                0,
                1,
                2
            ]
        }
    ],
    "nodes" : [
        {
            "mesh" : 0,
            "name" : "Cube.003",
            "scale" : [
                0.5000001192092896,
                0.5000001192092896,
                0.5000001192092896
            ]
        },
        {
            "name" : "Camera",
            "rotation" : [
                -0.7071068286895752,
                0,
                0,
                -0.7071067094802856
            ],
            "translation" : [
                -0.1627781093120575,
                0.6921845078468323,
                10.373565673828125
            ]
        },
        {
            "name" : "Sun",
            "rotation" : [
                0.27087581157684326,
                0,
                0.32316941022872925,
                0.9067458510398865
            ],
            "translation" : [
                -2.980478286743164,
                4.269084930419922,
                2.6285018920898438
            ]
        }
    ],
    "materials" : [
        {
            "doubleSided" : true,
            "name" : "Material.009",
            "pbrMetallicRoughness" : {
                "baseColorFactor" : [
                    0.9729999899864197,
                    0.5389999747276306,
                    0.10899999737739563,
                    1
                ],
                "roughnessFactor" : 0.10000000149011612
            }
        }
    ],
    "meshes" : [
        {
            "name" : "Cube.004",
            "primitives" : [
                {
                    "attributes" : {
                        "POSITION" : 0,
                        "NORMAL" : 1,
                        "TEXCOORD_0" : 2
                    },
                    "indices" : 3,
                    "material" : 0
                }
            ]
        }
    ],
    "accessors" : [
        {
            "bufferView" : 0,
            "componentType" : 5126,
            "count" : 3476,
            "max" : [
                1.0945898294448853,
                2.1929759979248047,
                1.0945898294448853
            ],
            "min" : [
                -1.0945898294448853,
                0.03304688259959221,
                -1.0945898294448853
            ],
            "type" : "VEC3"
        },
        {
            "bufferView" : 1,
            "componentType" : 5126,
            "count" : 3476,
            "type" : "VEC3"
        },
        {
            "bufferView" : 2,
            "componentType" : 5126,
            "count" : 3476,
            "type" : "VEC2"
        },
        {
            "bufferView" : 3,
            "componentType" : 5123,
            "count" : 5748,
            "type" : "SCALAR"
        }
    ],
    "bufferViews" : [
        {
            "buffer" : 0,
            "byteLength" : 41712,
            "byteOffset" : 0
        },
        {
            "buffer" : 0,
            "byteLength" : 41712,
            "byteOffset" : 41712
        },
        {
            "buffer" : 0,
            "byteLength" : 27808,
            "byteOffset" : 83424
        },
        {
            "buffer" : 0,
            "byteLength" : 11496,
            "byteOffset" : 111232
        }
    ],
    "buffers" : [
        {
            "byteLength" : 122728,
            "uri" : "data:application/octet-stream;base64,"
        }
    ]
}
